<svg width="432" height="512" viewBox="0 0 432 512" fill="none" xmlns="http://www.w3.org/2000/svg">
<path d="M185.293 8.42992C189.849 6.1539 197.251 3.42267 201.579 2.28466C205.907 1.14665 211.829 0.122439 214.676 0.00863737C217.523 -0.105164 224.128 0.919046 229.481 2.28466C234.834 3.53647 242.692 6.4953 247.133 8.77133C251.803 11.275 258.066 16.0546 262.508 20.379C267.633 25.5001 271.391 30.6211 274.58 36.8802C277.199 41.8875 279.933 49.0569 280.73 52.8124C281.641 57.1368 281.983 63.8511 281.527 71.0206C281.185 78.5314 280.16 84.7905 278.566 89.2287C277.199 92.9842 273.897 99.357 271.277 103.34C268.658 107.323 263.419 113.355 259.661 116.769C255.903 120.069 249.297 124.621 244.856 126.669C240.414 128.832 234.036 131.221 230.62 132.018C227.203 132.701 220.028 133.384 214.676 133.27C208.222 133.194 202.338 132.359 197.023 130.766C192.696 129.401 186.546 126.783 183.357 125.076C180.282 123.369 174.929 119.386 171.513 116.313C168.21 113.355 163.199 107.551 160.58 103.454C157.96 99.357 154.544 92.9842 153.177 89.2287C151.355 84.4491 150.444 78.9866 149.988 71.0206C149.647 63.9649 149.988 57.023 150.899 52.8124C151.697 49.0569 154.43 41.8875 157.049 36.8802C160.238 30.5073 163.996 25.3863 169.349 20.0376C174.702 14.8028 179.713 11.1611 185.293 8.42992Z" fill="black"/>
<path d="M0.227773 290.088C0.455545 285.422 0.797205 280.87 1.25275 279.959C1.7083 279.049 2.73327 278.821 3.87214 279.277C4.89711 279.732 11.6164 282.122 18.7913 284.625C25.9661 287.129 37.8103 290.884 44.9851 293.047C52.16 295.209 64.0041 298.509 71.179 300.216C78.3538 302.037 85.6425 303.858 90.5397 304.882V315.693C90.5397 323.545 90.198 326.504 89.173 326.504C88.3758 326.504 78.6955 324.114 67.7624 321.269C56.8293 318.424 39.4047 313.303 29.041 309.889C18.6774 306.361 7.97205 302.492 0 298.623L0.227773 290.088Z" fill="black"/>
<path d="M387.214 292.819C396.666 290.088 409.649 285.763 416.255 283.373C422.86 280.984 428.782 279.049 429.352 279.277C430.035 279.39 430.832 281.78 431.402 284.512C431.857 287.243 432.085 291.567 431.971 294.071C431.629 298.281 431.174 298.85 426.504 301.126C423.657 302.492 412.952 306.361 402.588 309.889C392.225 313.303 374.8 318.424 363.867 321.269C352.934 324.114 343.254 326.504 342.57 326.504C341.431 326.504 341.09 323.545 341.09 304.882L344.278 304.199C345.987 303.858 352.478 302.264 358.742 300.671C365.006 299.192 377.875 295.664 387.214 292.819Z" fill="black"/>
<path d="M148.963 500.506C143.155 498.685 138.03 496.523 137.575 495.726C136.891 494.588 139.169 494.588 149.191 495.726C156.138 496.409 170.602 497.547 181.421 498.23C192.126 498.913 207.729 499.482 215.815 499.482C223.901 499.482 239.503 498.913 250.322 498.23C261.028 497.547 275.377 496.409 281.983 495.726C291.663 494.588 294.055 494.702 293.713 495.84C293.485 496.523 287.791 498.913 281.072 501.075C274.238 503.124 263.191 505.855 256.244 507.22C249.411 508.472 239.617 510.065 234.606 510.748C229.595 511.431 221.167 512 215.815 512C210.462 512 199.187 510.976 190.76 509.724C182.332 508.586 171.855 506.765 167.413 505.741C163.085 504.717 154.658 502.327 148.963 500.506Z" fill="black"/>
<path d="M111.495 223.628C111.381 159.785 111.381 106.982 111.609 106.185C111.95 104.933 112.861 105.047 116.392 106.413C118.783 107.437 123.794 109.827 127.553 111.648C131.311 113.582 137.575 117.338 141.561 120.069C145.433 122.8 150.786 127.807 153.291 130.994C155.91 134.294 159.327 139.529 160.921 142.715C162.402 145.788 164.566 150.454 165.591 152.957C167.185 156.94 167.413 167.979 168.096 237.17C168.552 303.402 169.007 317.741 170.374 322.521C171.399 325.594 173.677 330.942 175.499 334.356C177.321 337.77 180.852 342.322 183.357 344.485C185.863 346.647 190.532 349.606 193.607 351.085C196.682 352.565 202.945 354.272 207.273 354.841C212.17 355.523 218.548 355.523 223.787 354.841C228.456 354.272 234.948 352.565 238.022 351.085C241.211 349.606 245.767 346.647 248.272 344.485C250.778 342.322 254.422 337.543 256.472 333.787C258.408 330.146 260.686 324.797 261.483 321.952C262.508 318.197 263.077 294.867 264.216 156.371L269 146.698C271.619 141.35 276.061 134.408 278.794 131.335C281.527 128.149 287.563 123.028 292.232 119.841C296.902 116.655 304.874 111.875 309.999 109.258C316.718 105.958 319.679 105.047 320.021 105.958C320.362 106.754 320.476 159.672 320.248 223.514L320.248 223.702C319.907 339.137 319.905 339.596 317.401 348.923C316.035 354.158 312.846 362.351 310.454 367.131C307.949 372.025 303.963 378.397 301.571 381.242C299.179 384.088 294.624 388.64 291.549 391.257C288.474 393.874 281.185 398.313 275.605 401.044C270.025 403.889 261.028 407.075 255.675 408.441C250.322 409.693 239.047 411.286 230.62 412.083C218.662 413.107 211.943 413.107 200.44 412.083C192.24 411.4 181.307 409.693 175.954 408.327C170.602 407.075 161.377 403.661 155.455 400.816C146.458 396.492 143.041 394.102 135.411 386.364C127.667 378.739 125.275 375.325 120.947 366.335C118.1 360.417 114.911 351.996 113.772 347.557C111.95 340.16 111.723 330.487 111.495 223.628Z" fill="black"/>
<path d="M73.3428 134.863C75.6206 132.701 79.9482 128.945 83.0232 126.442C86.0981 123.938 89.0591 122.117 89.7425 122.459C90.3119 122.686 90.7674 127.694 90.6536 133.384C90.6536 139.187 90.3119 144.081 90.0841 144.422C89.7425 144.764 84.8453 143.967 79.151 142.715C73.4567 141.463 69.0151 140.098 69.129 139.529C69.2429 139.074 71.179 137.025 73.3428 134.863Z" fill="black"/>
<path d="M340.862 133.497C340.748 127.807 341.09 122.8 341.545 122.459C342.115 122.003 344.848 123.597 347.809 125.987C350.77 128.263 355.325 132.018 357.945 134.18C360.564 136.342 362.728 138.732 362.728 139.301C362.728 139.984 358.173 141.463 352.478 142.715C346.784 143.967 341.887 144.764 341.545 144.422C341.317 144.081 340.976 139.187 340.862 133.497Z" fill="black"/>
<path d="M48.1739 161.151C49.1989 159.672 52.3877 155.802 55.2349 152.502C59.107 147.95 60.8153 146.698 62.6375 147.154C63.8903 147.495 70.7234 149.202 90.6536 153.868V164.451C90.5397 173.897 90.3119 175.149 88.6036 175.149C87.4647 175.149 78.9233 173.1 69.4707 170.71C60.132 168.207 51.0211 165.703 49.3128 165.02C46.2379 163.768 46.124 163.655 48.1739 161.151Z" fill="black"/>
<path d="M340.52 153.868L354.756 150.454C362.614 148.519 369.447 146.926 370.131 146.812C370.814 146.698 373.775 149.543 376.85 153.185C379.925 156.827 383.342 160.696 384.253 161.72C385.961 163.541 385.847 163.882 382.658 165.02C380.836 165.703 371.611 168.207 362.159 170.71C352.82 173.1 344.165 175.149 343.14 175.149C341.317 175.149 341.09 173.783 340.52 153.868Z" fill="black"/>
<path d="M29.8382 188.463C29.7243 187.894 31.8882 183.911 34.6215 179.587C37.4686 175.262 40.3158 171.735 40.8852 171.735C41.5685 171.735 47.0351 173.1 52.9572 174.807C58.8793 176.4 69.6985 179.132 89.9702 183.911L90.5397 205.875L87.4647 205.192C85.6631 204.855 76.847 202.626 67.5118 200.265L67.193 200.185C57.8543 197.795 45.5546 194.381 40.088 192.56C34.5076 190.853 29.9521 188.919 29.8382 188.463Z" fill="black"/>
<path d="M355.325 180.725C362.842 178.904 373.32 176.287 378.672 174.693C384.025 173.214 389.15 171.848 390.061 171.848C390.972 171.848 394.161 175.49 397.122 180.042C400.083 184.48 402.133 188.577 401.677 189.032C401.222 189.488 394.73 191.65 387.214 193.926C379.697 196.202 367.625 199.502 360.45 201.209C353.276 203.03 345.987 204.851 341.09 205.875L341.659 183.911L355.325 180.725Z" fill="black"/>
<path d="M17.3107 215.207C16.7413 214.751 18.1079 210.427 20.3857 205.647C22.5495 200.754 24.8272 196.771 25.2828 196.771C25.7383 196.771 33.9381 199.161 43.2768 202.006C52.7294 204.851 67.193 208.72 90.5397 214.41V224.994C90.5397 233.529 90.198 235.463 88.8314 235.463C87.9203 235.463 79.0371 233.415 69.2429 231.025C59.3348 228.521 43.8463 224.083 34.7353 221.238C25.6244 218.279 17.7663 215.548 17.3107 215.207Z" fill="black"/>
<path d="M356.806 210.655C365.347 208.492 379.583 204.623 388.353 201.892C397.122 199.161 404.98 196.885 405.777 196.885C406.46 196.771 408.966 200.754 411.244 205.647C413.408 210.427 414.888 214.751 414.319 215.207C413.863 215.548 406.005 218.279 396.894 221.238C387.783 224.197 372.408 228.521 362.728 231.025C353.048 233.415 344.165 235.463 343.14 235.463C341.317 235.463 341.09 234.211 341.09 214.41L356.806 210.655Z" fill="black"/>
<path d="M9.79423 233.187C11.047 228.521 12.4136 224.311 12.7553 223.855C12.9831 223.286 13.5525 222.945 14.008 222.945C14.4636 222.945 20.9551 224.994 28.4716 227.497C35.9881 230.001 49.085 233.984 57.5126 236.26C65.9402 238.536 76.7594 241.153 89.9702 244.112L90.5397 266.19L86.8953 265.507C84.8454 265.165 74.7095 262.662 64.3458 259.93C53.9821 257.199 37.127 252.078 26.7633 248.55C16.3996 245.023 7.85817 242.064 7.63039 241.95C7.40262 241.836 8.4276 237.853 9.79423 233.187Z" fill="black"/>
<path d="M376.622 235.463C385.619 232.96 398.033 229.204 404.297 227.042C410.56 224.88 416.482 223.286 417.394 223.4C418.419 223.4 420.013 226.814 421.607 232.049C423.088 236.715 424.227 240.926 424.227 241.495C424.227 241.95 414.091 245.592 401.791 249.688C389.378 253.671 371.156 259.02 361.361 261.637C351.453 264.141 342.912 266.19 342.229 266.19C341.545 266.19 341.09 261.865 341.09 244.567L345.417 243.429C347.695 242.86 352.023 241.836 355.098 241.153C358.059 240.584 367.739 237.967 376.622 235.463Z" fill="black"/>
<path d="M2.39162 265.962C2.73328 263.913 3.53048 259.475 4.09992 256.289C4.78323 252.989 5.58044 250.257 5.9221 250.257C6.26376 250.257 16.3996 253.558 28.3577 257.541C40.3158 261.637 59.2209 267.1 90.5397 274.725V285.308C90.5397 294.526 90.3119 295.778 88.6036 295.778C87.4647 295.778 82.4537 294.754 77.4427 293.502C72.4317 292.25 62.7514 289.633 55.8043 287.812C48.9711 285.991 34.8492 281.553 24.4856 278.025C14.1219 274.611 4.78323 271.197 3.75826 270.628C2.16385 269.831 1.82219 268.693 2.39162 265.962Z" fill="black"/>
<path d="M361.361 269.831C372.408 267.1 390.972 261.637 402.588 257.768C414.205 253.785 424.341 250.485 425.138 250.485C425.935 250.371 426.96 252.533 427.529 256.289L427.746 257.5C428.286 260.519 428.938 264.162 429.238 265.962C429.807 268.693 429.466 269.831 427.985 270.628C426.846 271.197 417.507 274.611 407.144 278.025C396.78 281.553 382.772 285.991 375.825 287.812C368.878 289.633 359.198 292.25 354.187 293.502C349.176 294.754 344.165 295.778 343.14 295.778C341.317 295.778 341.09 294.526 341.09 274.725L361.361 269.831Z" fill="black"/>
<path d="M2.50551 324.57C2.04996 320.928 1.36664 316.034 1.02498 313.758C0.569438 311.369 0.797211 309.434 1.25276 309.434C1.82219 309.434 12.5275 312.848 25.055 316.945C37.5825 321.155 57.5126 326.959 91.1091 335.381L93.0452 345.395C94.0701 350.971 94.9812 355.865 94.9812 356.434C95.0951 356.889 94.0701 357.23 92.8174 357.23C91.5646 357.23 81.6565 354.954 70.9512 352.223C60.132 349.378 44.6435 345.054 36.4436 342.436C28.2438 339.819 17.5385 336.177 3.4166 331.056L2.50551 324.57Z" fill="black"/>
<path d="M394.616 321.042C403.044 318.424 413.863 314.783 418.532 312.962C423.202 311.141 427.871 309.662 428.896 309.548C430.149 309.434 430.491 310.458 430.377 313.758C430.149 316.034 429.807 320.928 428.782 331.056L419.444 334.356C414.205 336.177 402.588 340.046 393.477 342.891C384.366 345.85 368.422 350.289 357.945 353.02C345.417 356.206 338.47 357.458 337.787 356.661C337.104 355.979 337.445 351.654 340.52 335.267L359.881 330.487C370.586 327.87 386.189 323.545 394.616 321.042Z" fill="black"/>
<path d="M8.4276 354.385C6.94707 349.037 6.26376 344.371 6.83319 343.119C7.40262 341.753 8.31371 341.298 9.56646 341.867C10.5914 342.322 20.3857 345.623 31.3188 349.264C42.2519 352.906 59.6765 357.913 70.0401 360.417C80.4038 362.921 90.8813 365.424 93.3868 365.993C97.4867 366.904 98.2839 367.586 101.701 374.301C103.75 378.397 106.712 383.632 108.192 386.022C109.786 388.298 110.811 390.347 110.47 390.574C110.242 390.688 104.206 389.664 97.1451 388.298C90.0841 386.933 77.1011 384.088 68.3318 381.811C59.5626 379.649 43.7324 374.983 33.0271 371.569C22.4356 368.042 13.0969 364.855 12.2997 364.4C11.6164 363.831 9.79423 359.393 8.4276 354.385Z" fill="black"/>
<path d="M383.797 354.613C391.314 352.337 403.044 348.582 409.991 346.078C416.938 343.574 423.202 341.64 423.999 341.753C424.91 341.867 425.479 343.119 425.366 344.712C425.252 346.306 423.999 351.427 420.241 364.514L400.311 371C389.377 374.642 374.003 379.194 366.145 381.129C358.286 383.177 345.19 386.25 337.104 387.957C329.018 389.778 321.957 390.802 321.387 390.46C320.932 390.005 321.387 388.867 322.298 387.957C323.21 387.046 326.057 381.925 333.687 367.017L351.909 362.807C361.931 360.417 376.281 356.775 383.797 354.613Z" fill="black"/>
<path d="M21.9801 389.095C18.9051 383.177 16.5135 377.601 16.5135 376.918C16.5135 376.121 17.1968 375.439 17.8802 375.439C18.6774 375.439 23.9161 376.918 29.6105 378.853C35.1909 380.787 47.0351 384.315 55.8043 386.819C64.5736 389.322 79.9482 393.078 89.9702 395.24C99.9922 397.402 110.698 399.564 113.886 400.02C117.986 400.589 120.72 401.84 123.567 404.344C125.731 406.279 129.83 409.465 132.678 411.4C135.525 413.334 141.333 416.748 145.775 418.911C150.102 421.187 155.797 423.576 158.302 424.259C161.833 425.397 162.516 425.966 161.377 426.991C160.238 428.015 156.935 428.015 147.141 426.877C140.08 426.08 125.161 423.804 113.886 421.869C102.612 420.049 83.5926 415.952 71.7484 412.879C59.7904 409.92 44.9851 405.71 27.3327 399.906L21.9801 389.095Z" fill="black"/>
<path d="M377.533 386.25C387.214 383.519 398.716 379.991 403.158 378.397C407.599 376.918 412.041 375.552 413.18 375.552C414.66 375.439 415.002 376.121 414.433 378.625C414.091 380.332 411.699 385.795 404.297 399.906L392.908 403.661C386.644 405.71 371.725 409.92 359.881 412.993C348.037 415.952 329.018 420.049 317.743 421.869C306.468 423.804 291.549 426.08 284.488 426.877C274.694 428.015 271.391 428.015 270.252 426.991C269.113 425.966 269.797 425.397 273.327 424.259C275.833 423.576 281.413 421.187 285.855 418.911C290.296 416.748 296.105 413.334 298.952 411.4C301.799 409.465 305.899 406.279 308.063 404.344C310.91 401.84 313.643 400.589 317.743 400.02C320.932 399.564 331.637 397.402 341.659 395.24C351.681 393.078 367.853 389.095 377.533 386.25Z" fill="black"/>
<path d="M40.8852 421.528C38.1519 417.773 35.9881 414.017 36.102 413.107C36.2159 412.31 37.0131 411.855 38.0381 412.196C39.063 412.424 47.2629 414.814 56.3738 417.317C65.4847 419.821 81.6565 423.69 92.248 425.853C102.953 428.129 118.783 430.974 127.553 432.225C136.322 433.477 151.924 435.412 162.288 436.436C175.385 437.802 191.557 438.371 215.815 438.371C240.072 438.371 256.244 437.802 269.341 436.436C279.705 435.412 295.307 433.477 304.077 432.225C312.846 430.974 328.79 428.129 339.381 425.853C350.087 423.69 366.145 419.821 375.256 417.317C384.366 414.814 392.68 412.538 393.819 412.31C394.844 412.083 395.755 412.538 395.755 413.334C395.755 414.017 392.908 418.569 389.491 423.235C386.075 427.901 381.633 433.363 379.583 435.412C376.508 438.257 373.32 439.736 362.728 442.467C355.553 444.402 340.634 447.702 329.701 449.865C318.768 452.027 301.343 454.872 290.98 456.124C280.616 457.489 265.241 458.969 256.814 459.651C248.386 460.22 229.937 460.789 215.815 460.789C201.693 460.789 183.243 460.22 174.816 459.651C166.388 458.969 151.013 457.489 140.65 456.124C130.286 454.872 112.861 452.027 101.928 449.865C90.9952 447.702 75.8483 444.288 68.4457 442.24C55.5766 438.826 54.6655 438.371 50.3378 433.477C47.8323 430.632 43.6185 425.284 40.8852 421.528Z" fill="black"/>
<path d="M76.5316 459.993C72.3178 456.351 68.7874 453.051 68.9013 452.596C68.9013 452.027 69.6985 451.685 70.6096 451.685C71.5206 451.685 77.5566 452.937 84.0481 454.53C90.4258 456.01 103.067 458.513 112.178 460.107C121.289 461.586 135.069 463.635 142.927 464.659C150.786 465.683 164.338 466.935 173.107 467.618C181.877 468.187 201.123 468.756 215.815 468.756C230.506 468.756 249.753 468.187 258.522 467.618C267.291 466.935 280.844 465.683 288.702 464.659C296.56 463.635 310.34 461.586 319.451 460.107C328.562 458.513 341.204 456.01 347.695 454.53C354.073 452.937 360.109 451.685 361.02 451.685C361.931 451.685 362.728 452.141 362.728 452.823C362.728 453.506 359.311 456.806 355.098 460.334C350.77 463.748 342.456 469.894 325.715 481.16L310.91 483.436C302.824 484.688 289.158 486.509 280.73 487.533C272.302 488.443 254.081 489.809 240.3 490.492C221.851 491.402 208.754 491.402 190.76 490.492C177.321 489.809 159.327 488.443 150.899 487.533C142.472 486.509 128.919 484.688 105.914 481.16L95.0951 473.877C89.173 469.894 80.7454 463.635 76.5316 459.993Z" fill="black"/>
</svg>
